<svg xmlns="http://www.w3.org/2000/svg" xmlns:xlink="http://www.w3.org/1999/xlink" width="793" zoomAndPan="magnify" viewBox="0 0 595.5 842.249979" height="1122" preserveAspectRatio="xMidYMid meet" version="1.0"><defs><clipPath id="da3913f134"><path d="M 190.105469 449 L 398 449 L 398 532.265625 L 190.105469 532.265625 Z M 190.105469 449 " clip-rule="nonzero"/></clipPath><clipPath id="4d8a0ac4f9"><path d="M 326 308.964844 L 393 308.964844 L 393 377 L 326 377 Z M 326 308.964844 " clip-rule="nonzero"/></clipPath></defs><g clip-path="url(#da3913f134)"><path fill="#1858e3" d="M 372.714844 532.140625 C 371.339844 532.140625 369.929688 532.089844 368.5 531.988281 C 360.761719 531.417969 352.253906 529.28125 345.042969 525.070312 C 334.921875 519.15625 327.519531 509.238281 319.867188 498.011719 C 318.738281 496.351562 317.578125 494.628906 316.433594 492.925781 C 309.769531 483.023438 303 472.984375 296.367188 467.046875 C 291.0625 462.300781 285.898438 460.242188 281.140625 459.894531 C 280.644531 459.859375 280.148438 459.84375 279.65625 459.84375 C 278.035156 459.84375 276.453125 460.035156 274.917969 460.386719 C 272.472656 460.949219 270.144531 461.921875 267.988281 463.253906 L 267.992188 463.253906 C 268.160156 463.457031 268.328125 463.664062 268.496094 463.867188 C 275.515625 472.671875 280.15625 486.601562 276.109375 493.289062 C 274.167969 496.496094 270.492188 497.710938 266.878906 497.710938 C 266.472656 497.710938 266.074219 497.695312 265.671875 497.667969 C 261.609375 497.367188 257.304688 495.601562 254.761719 492.71875 C 249.601562 486.871094 252.371094 477.503906 256.449219 470.9375 C 258.425781 467.757812 260.835938 464.992188 263.59375 462.78125 L 263.597656 462.78125 C 257.195312 456.375 248.792969 453.058594 239.472656 452.378906 C 239.375 452.371094 239.300781 452.367188 239.203125 452.359375 L 239.199219 452.359375 C 238.054688 452.28125 236.898438 452.246094 235.742188 452.246094 C 225.90625 452.246094 215.632812 454.933594 208.628906 459.054688 C 200.878906 463.617188 197.046875 469.972656 193.039062 476.65625 C 192.765625 477.113281 192.28125 477.367188 191.78125 477.367188 C 191.523438 477.367188 191.265625 477.300781 191.03125 477.160156 C 190.335938 476.742188 190.109375 475.84375 190.527344 475.148438 C 194.515625 468.496094 198.679688 461.515625 207.140625 456.535156 C 214.636719 452.125 225.425781 449.316406 235.742188 449.316406 C 236.96875 449.316406 238.1875 449.355469 239.394531 449.433594 L 239.40625 449.4375 C 239.5 449.441406 239.589844 449.449219 239.683594 449.457031 C 249.75 450.191406 258.992188 453.851562 266 461.042969 C 268.535156 459.410156 271.308594 458.210938 274.261719 457.535156 C 276 457.132812 277.804688 456.914062 279.65625 456.914062 C 280.21875 456.914062 280.785156 456.933594 281.355469 456.976562 C 286.847656 457.375 292.605469 459.75 298.320312 464.863281 C 305.289062 471.097656 312.277344 481.503906 318.863281 491.289062 C 320.011719 492.996094 321.164062 494.707031 322.289062 496.363281 C 329.96875 507.625 337.039062 517 346.523438 522.542969 C 353.265625 526.480469 361.3125 528.523438 368.710938 529.066406 C 370.074219 529.164062 371.414062 529.210938 372.714844 529.210938 C 374.265625 529.210938 375.757812 529.144531 377.179688 529.011719 C 386.3125 528.164062 391.96875 524.757812 393.996094 519.726562 C 395.175781 516.808594 395.234375 513.207031 394.753906 509.179688 L 394.75 509.179688 L 394.753906 509.179688 C 395.746094 508.984375 396.71875 508.773438 397.625 508.542969 L 397.625 508.546875 L 397.632812 508.542969 C 398.175781 513.003906 398.148438 517.269531 396.714844 520.824219 C 394.082031 527.351562 387.039062 531.039062 377.449219 531.929688 C 375.9375 532.066406 374.351562 532.140625 372.714844 532.140625 M 265.578125 464.941406 C 263.039062 466.953125 260.789062 469.5 258.9375 472.484375 C 254.886719 479.007812 253.261719 486.589844 256.960938 490.78125 C 258.875 492.957031 262.390625 494.488281 265.886719 494.746094 C 266.230469 494.769531 266.574219 494.785156 266.90625 494.785156 C 269.925781 494.785156 272.402344 493.753906 273.601562 491.773438 C 276.578125 486.855469 273.171875 474.433594 266.203125 465.695312 C 266 465.441406 265.792969 465.191406 265.585938 464.941406 L 265.578125 464.941406 M 397.632812 508.542969 L 397.628906 508.542969 C 397.628906 508.542969 397.628906 508.542969 397.632812 508.542969 M 394.332031 506.277344 C 395.175781 506.109375 395.988281 505.933594 396.738281 505.75 C 395.988281 505.933594 395.175781 506.109375 394.332031 506.277344 " fill-opacity="1" fill-rule="nonzero"/></g><path fill="#1858e3" d="M 381.53125 404.296875 C 380.910156 404.296875 380.382812 403.820312 380.320312 403.191406 C 380.230469 402.242188 380.152344 401.523438 380.089844 401.03125 L 380.085938 400.976562 L 380.085938 400.980469 C 380.066406 400.796875 379.863281 399.226562 379.472656 396.28125 L 379.464844 396.230469 L 379.464844 396.207031 C 379.421875 395.863281 379.410156 395.523438 379.417969 395.1875 C 379.4375 394.527344 379.980469 394.003906 380.632812 394.003906 C 380.648438 394.003906 380.65625 394.003906 380.667969 394.003906 C 381.339844 394.023438 381.867188 394.582031 381.851562 395.253906 C 381.84375 395.472656 381.851562 395.699219 381.878906 395.925781 L 381.882812 395.960938 C 382.273438 398.90625 382.476562 400.5 382.503906 400.734375 C 382.574219 401.257812 382.652344 402 382.742188 402.964844 C 382.804688 403.632812 382.316406 404.226562 381.648438 404.289062 C 381.609375 404.292969 381.566406 404.296875 381.53125 404.296875 " fill-opacity="1" fill-rule="nonzero"/><path fill="#ff3131" d="M 381.789062 372.019531 C 381.644531 371.984375 381.492188 371.976562 381.347656 371.996094 C 381.003906 372.042969 380.6875 372.246094 380.503906 372.539062 C 380.351562 372.777344 380.296875 373.066406 380.199219 373.328125 C 380.058594 373.699219 379.828125 374.046875 379.792969 374.441406 C 379.769531 374.730469 379.863281 375.027344 380.039062 375.257812 C 380.21875 375.488281 380.480469 375.648438 380.769531 375.707031 C 381.101562 375.773438 381.460938 375.699219 381.730469 375.492188 C 382.203125 375.128906 382.40625 374.46875 382.574219 373.917969 C 382.667969 373.601562 382.773438 373.273438 382.703125 372.9375 C 382.652344 372.679688 382.503906 372.449219 382.308594 372.28125 C 382.15625 372.15625 381.980469 372.066406 381.789062 372.019531 " fill-opacity="1" fill-rule="nonzero"/><path fill="#ff3131" d="M 390.480469 496.140625 C 389.8125 496.074219 389.21875 496.5625 389.152344 497.230469 C 389.082031 497.910156 388.691406 498.558594 388.414062 499.171875 C 388.136719 499.785156 388.410156 500.503906 389.019531 500.78125 C 389.632812 501.058594 390.351562 500.785156 390.628906 500.171875 C 390.863281 499.65625 391.125 499.125 391.3125 498.578125 C 391.4375 498.21875 391.53125 497.851562 391.570312 497.472656 C 391.636719 496.804688 391.152344 496.210938 390.480469 496.140625 " fill-opacity="1" fill-rule="nonzero"/><path fill="#ff3131" d="M 394.570312 495.699219 C 394.132812 495.628906 393.683594 495.808594 393.414062 496.15625 C 393.253906 496.363281 393.230469 496.574219 393.15625 496.8125 C 393.03125 497.230469 392.792969 497.589844 392.886719 498.042969 C 392.96875 498.421875 393.230469 498.746094 393.578125 498.902344 C 393.945312 499.066406 394.378906 499.039062 394.71875 498.828125 C 395.089844 498.597656 395.277344 498.179688 395.40625 497.78125 C 395.554688 497.332031 395.691406 496.824219 395.476562 496.375 C 395.300781 496.015625 394.960938 495.761719 394.570312 495.699219 " fill-opacity="1" fill-rule="nonzero"/><path fill="#1858e3" d="M 385.007812 510.550781 C 382.90625 510.550781 381.148438 509.921875 379.863281 507.503906 C 379.003906 505.882812 378.355469 503.445312 377.195312 498.429688 C 376.796875 496.703125 376.335938 494.664062 375.78125 492.207031 C 374.957031 488.550781 373.917969 483.945312 372.589844 478.207031 C 367.949219 458.121094 359.691406 423.703125 351.277344 388.664062 C 352.136719 388.90625 353.171875 389.039062 354.390625 389.066406 C 362.710938 423.726562 370.847656 457.65625 375.445312 477.546875 C 376.773438 483.296875 377.816406 487.902344 378.640625 491.5625 C 379.195312 494.019531 379.652344 496.050781 380.050781 497.773438 C 381.242188 502.917969 381.8125 504.921875 382.453125 506.132812 C 383.019531 507.203125 383.546875 507.621094 384.972656 507.621094 C 385.691406 507.621094 386.640625 507.511719 387.945312 507.332031 C 388.328125 507.277344 388.742188 507.21875 389.15625 507.15625 C 390.804688 506.914062 392.628906 506.617188 394.332031 506.277344 L 394.339844 506.277344 C 394.503906 507.265625 394.644531 508.234375 394.753906 509.179688 C 392.980469 509.527344 391.15625 509.824219 389.585938 510.054688 C 389.160156 510.117188 388.742188 510.179688 388.351562 510.234375 C 387.160156 510.398438 386.042969 510.550781 385.007812 510.550781 M 397.625 508.542969 L 397.628906 508.542969 C 397.625 508.542969 397.625 508.542969 397.625 508.542969 M 397.632812 508.542969 C 397.511719 507.578125 397.371094 506.609375 397.207031 505.632812 L 397.203125 505.632812 C 397.050781 505.671875 396.898438 505.710938 396.738281 505.75 C 397.886719 505.464844 398.886719 505.167969 399.621094 504.855469 C 400.96875 504.285156 401.246094 504.539062 400.117188 497.046875 L 400.042969 496.574219 C 398.933594 489.199219 396.984375 475.828125 395.035156 462.449219 L 382.722656 384.0625 C 383.710938 383.632812 384.617188 383.121094 385.449219 382.53125 L 385.453125 382.542969 L 397.929688 461.996094 L 397.933594 462.011719 C 399.882812 475.398438 401.832031 488.773438 402.941406 496.136719 L 403.011719 496.613281 C 403.980469 503.019531 404.652344 505.902344 400.765625 507.550781 C 399.921875 507.90625 398.839844 508.238281 397.632812 508.542969 M 385.445312 382.542969 L 385.445312 382.546875 L 385.445312 382.542969 M 352.082031 385.796875 C 351.90625 385.757812 351.730469 385.714844 351.5625 385.667969 C 351.152344 385.53125 350.769531 385.320312 350.40625 385.035156 C 350.40625 385.03125 350.40625 385.027344 350.40625 385.019531 L 350.410156 385.019531 C 350.894531 385.367188 351.457031 385.621094 352.082031 385.796875 M 382.742188 380.816406 C 383.726562 380.277344 384.4375 379.632812 384.859375 378.824219 L 384.867188 378.824219 L 384.882812 378.933594 C 384.550781 379.417969 384.097656 379.894531 383.527344 380.351562 C 383.289062 380.511719 383.027344 380.664062 382.742188 380.816406 " fill-opacity="1" fill-rule="nonzero"/><path fill="#ff3131" d="M 394.753906 509.179688 C 394.644531 508.234375 394.503906 507.265625 394.339844 506.277344 L 394.332031 506.277344 C 395.175781 506.109375 395.988281 505.933594 396.738281 505.75 C 396.898438 505.710938 397.050781 505.671875 397.203125 505.632812 L 397.207031 505.632812 C 397.371094 506.609375 397.511719 507.578125 397.632812 508.542969 C 397.628906 508.542969 397.628906 508.542969 397.628906 508.542969 L 397.625 508.542969 C 396.71875 508.773438 395.746094 508.984375 394.753906 509.179688 " fill-opacity="1" fill-rule="nonzero"/><path fill="#1858e3" d="M 354.839844 389.074219 C 354.6875 389.074219 354.535156 389.070312 354.390625 389.066406 C 354.386719 389.0625 354.382812 389.054688 354.382812 389.046875 L 354.390625 389.046875 L 354.382812 389.046875 L 354.390625 389.046875 L 354.371094 389.046875 L 354.382812 389.046875 C 354.144531 388.058594 353.910156 387.066406 353.671875 386.074219 L 353.675781 386.078125 C 353.105469 386.027344 352.574219 385.9375 352.082031 385.796875 C 353.074219 386.019531 354.132812 386.128906 355.261719 386.128906 C 356.015625 386.128906 356.800781 386.082031 357.613281 385.980469 L 361.457031 385.453125 L 378.476562 382.382812 C 380.242188 381.910156 381.664062 381.390625 382.742188 380.816406 C 382.585938 380.902344 382.421875 380.988281 382.246094 381.070312 L 382.253906 381.070312 L 382.722656 384.058594 L 382.714844 384.0625 L 382.722656 384.0625 C 381.65625 384.53125 380.503906 384.902344 379.261719 385.179688 L 360.980469 388.492188 C 360.289062 388.605469 359.613281 388.699219 358.957031 388.773438 C 357.417969 388.972656 356.046875 389.074219 354.839844 389.074219 M 351.277344 388.664062 C 351.101562 388.609375 350.925781 388.558594 350.761719 388.496094 C 348.589844 387.519531 347.042969 386.152344 346.125 384.390625 C 345.160156 382.308594 344.378906 379.375 343.78125 375.59375 C 344.769531 375.875 345.773438 376.089844 346.792969 376.238281 C 347.089844 378.152344 347.472656 379.785156 347.949219 381.125 L 348.523438 382.515625 C 348.925781 383.359375 349.382812 384.042969 349.890625 384.570312 C 350.058594 384.742188 350.230469 384.898438 350.40625 385.035156 C 350.695312 386.226562 350.980469 387.410156 351.261719 388.597656 L 351.269531 388.597656 L 351.261719 388.597656 C 351.269531 388.621094 351.273438 388.640625 351.277344 388.664062 M 385.449219 382.53125 L 384.882812 378.933594 C 385.167969 378.507812 385.363281 378.078125 385.46875 377.636719 C 385.761719 376.371094 385.363281 373.21875 384.273438 368.175781 C 385.203125 367.59375 386.058594 366.976562 386.832031 366.324219 C 387.574219 369.511719 388.023438 371.621094 388.183594 372.664062 C 388.417969 375.4375 388.324219 377.539062 387.898438 378.957031 C 387.628906 380.339844 386.917969 381.453125 385.773438 382.292969 C 385.667969 382.375 385.558594 382.453125 385.449219 382.53125 " fill-opacity="1" fill-rule="nonzero"/><path fill="#ff3131" d="M 354.390625 389.066406 C 353.171875 389.039062 352.136719 388.90625 351.277344 388.664062 C 351.273438 388.640625 351.269531 388.621094 351.261719 388.597656 L 351.269531 388.597656 L 351.261719 388.597656 C 350.980469 387.410156 350.695312 386.226562 350.40625 385.035156 C 350.769531 385.320312 351.152344 385.53125 351.5625 385.667969 C 351.730469 385.714844 351.90625 385.757812 352.082031 385.796875 C 352.574219 385.9375 353.105469 386.027344 353.675781 386.078125 L 353.671875 386.074219 C 353.910156 387.066406 354.144531 388.058594 354.382812 389.046875 L 354.371094 389.046875 L 354.390625 389.046875 L 354.382812 389.046875 C 354.382812 389.054688 354.386719 389.0625 354.390625 389.066406 M 354.390625 389.046875 L 354.382812 389.046875 L 354.390625 389.046875 M 382.722656 384.0625 L 382.714844 384.0625 L 382.722656 384.058594 L 382.253906 381.070312 L 382.246094 381.070312 C 382.421875 380.988281 382.585938 380.902344 382.742188 380.816406 C 383.027344 380.664062 383.289062 380.511719 383.527344 380.351562 C 384.097656 379.894531 384.550781 379.417969 384.882812 378.933594 L 385.449219 382.53125 C 384.617188 383.121094 383.710938 383.632812 382.722656 384.0625 " fill-opacity="1" fill-rule="nonzero"/><path fill="#1858e3" d="M 344.660156 372.859375 C 344.191406 372.757812 343.757812 372.644531 343.359375 372.523438 C 343.355469 372.5 343.355469 372.480469 343.347656 372.460938 C 343.734375 372.605469 344.167969 372.738281 344.660156 372.859375 " fill-opacity="1" fill-rule="nonzero"/><g clip-path="url(#4d8a0ac4f9)"><path fill="#1858e3" d="M 350.300781 376.492188 C 349.109375 376.492188 347.941406 376.40625 346.792969 376.238281 C 346.648438 375.289062 346.523438 374.273438 346.421875 373.191406 C 345.773438 373.097656 345.183594 372.984375 344.660156 372.859375 C 346.359375 373.226562 348.511719 373.453125 351.117188 373.53125 C 360.851562 373.199219 369.824219 371.375 378.027344 368.050781 C 381.246094 366.796875 384.003906 365.046875 386.296875 362.792969 C 387.902344 360.988281 388.898438 358.996094 389.28125 356.808594 C 389.914062 352.8125 389.378906 347.398438 387.671875 340.570312 C 385.925781 332.332031 383.613281 325.609375 380.746094 320.410156 C 377.253906 314.710938 371.972656 311.867188 364.90625 311.867188 C 364.628906 311.867188 364.347656 311.871094 364.066406 311.878906 L 363.648438 311.875 C 354.742188 312.089844 346.769531 313.992188 339.726562 317.582031 C 336.777344 319.25 334.691406 321.007812 333.464844 322.851562 C 332.140625 324.753906 331.242188 326.816406 330.769531 329.035156 C 329.5625 335.015625 329.476562 340.882812 330.519531 346.636719 C 331.261719 353.058594 332.792969 358.917969 335.113281 364.214844 C 337 367.933594 338.921875 370.292969 340.882812 371.289062 C 341.457031 371.777344 342.285156 372.191406 343.359375 372.523438 C 343.484375 373.601562 343.628906 374.625 343.78125 375.59375 C 342.417969 375.203125 341.085938 374.6875 339.785156 374.042969 C 337.691406 373.132812 335.496094 370.753906 333.199219 366.902344 C 330.96875 362.929688 329.21875 357.113281 327.957031 349.46875 C 326.648438 340.410156 326.511719 334.007812 327.539062 330.265625 C 328.441406 325.867188 329.609375 322.847656 331.039062 321.203125 C 332.960938 318.726562 334.960938 316.90625 337.050781 315.75 C 343.984375 311.707031 352.582031 309.445312 362.851562 308.957031 L 363.648438 308.945312 C 363.941406 308.941406 364.234375 308.933594 364.519531 308.933594 C 373.003906 308.933594 379.238281 312.246094 383.230469 318.863281 C 386.363281 324.574219 388.792969 331.59375 390.53125 339.921875 C 391.378906 343.226562 392.019531 347.023438 392.445312 351.316406 C 392.523438 354.699219 392.425781 356.710938 392.160156 357.34375 C 391.566406 360.835938 389.792969 363.828125 386.832031 366.324219 C 386.710938 365.808594 386.578125 365.261719 386.441406 364.6875 C 386.113281 364.019531 385.78125 363.667969 385.441406 363.628906 L 385.398438 363.671875 C 384.425781 364.519531 383.816406 364.992188 383.574219 365.09375 C 383.832031 366.1875 384.0625 367.21875 384.273438 368.175781 C 383.101562 368.90625 381.808594 369.585938 380.386719 370.210938 C 370.628906 374.1875 361.03125 376.269531 351.589844 376.457031 C 351.15625 376.480469 350.726562 376.492188 350.300781 376.492188 " fill-opacity="1" fill-rule="nonzero"/></g><path fill="#ff3131" d="M 346.792969 376.238281 C 345.773438 376.089844 344.769531 375.875 343.78125 375.59375 C 343.628906 374.625 343.484375 373.601562 343.359375 372.523438 C 343.757812 372.644531 344.191406 372.757812 344.660156 372.859375 C 345.183594 372.984375 345.773438 373.097656 346.421875 373.191406 C 346.523438 374.273438 346.648438 375.289062 346.792969 376.238281 M 384.273438 368.175781 C 384.0625 367.21875 383.832031 366.1875 383.574219 365.09375 C 383.816406 364.992188 384.425781 364.519531 385.398438 363.671875 L 385.441406 363.628906 C 385.78125 363.667969 386.113281 364.019531 386.441406 364.6875 C 386.578125 365.261719 386.710938 365.808594 386.832031 366.324219 C 386.058594 366.976562 385.203125 367.59375 384.273438 368.175781 " fill-opacity="1" fill-rule="nonzero"/><path fill="#ff3131" d="M 391.050781 340.917969 C 385.507812 343.230469 379.886719 345.582031 372.675781 347.6875 C 365.488281 349.789062 356.703125 351.65625 348.96875 352.347656 C 341.210938 353.042969 334.5625 352.554688 328.0625 352.074219 C 327.039062 352 326.269531 351.109375 326.347656 350.085938 C 326.421875 349.0625 327.308594 348.296875 328.335938 348.371094 C 334.851562 348.847656 341.222656 349.3125 348.636719 348.648438 C 356.078125 347.980469 364.617188 346.171875 371.632812 344.121094 C 378.625 342.078125 384.078125 339.800781 389.617188 337.488281 C 390.5625 337.09375 391.652344 337.539062 392.046875 338.488281 C 392.441406 339.433594 391.996094 340.523438 391.050781 340.917969 " fill-opacity="1" fill-rule="nonzero"/><path fill="#ff3131" d="M 342.96875 315.355469 L 342.5 344.277344 L 342.5 344.316406 L 341.125 371.8125 C 341.09375 372.433594 340.566406 372.914062 339.945312 372.878906 C 339.324219 372.847656 338.84375 372.320312 338.875 371.699219 L 340.25 344.203125 L 340.246094 344.242188 L 340.714844 315.316406 C 340.722656 314.695312 341.238281 314.199219 341.859375 314.207031 C 342.480469 314.21875 342.980469 314.730469 342.96875 315.355469 " fill-opacity="1" fill-rule="nonzero"/><path fill="#ff3131" d="M 351.328125 313 C 351.332031 322.292969 351.335938 331.609375 350.972656 341.800781 C 350.613281 351.984375 349.890625 363.039062 349.164062 374.074219 C 349.125 374.695312 348.585938 375.167969 347.964844 375.128906 C 347.34375 375.085938 346.875 374.546875 346.914062 373.929688 C 347.636719 362.886719 348.363281 351.867188 348.722656 341.71875 C 349.078125 331.574219 349.074219 322.300781 349.070312 313 C 349.070312 312.375 349.574219 311.871094 350.199219 311.871094 C 350.820312 311.871094 351.328125 312.375 351.328125 313 " fill-opacity="1" fill-rule="nonzero"/><path fill="#ff3131" d="M 359.433594 310.90625 C 359.566406 322.679688 359.703125 334.488281 359.320312 344.921875 C 358.933594 355.359375 358.03125 364.40625 357.132812 373.417969 C 357.074219 374.039062 356.519531 374.492188 355.898438 374.425781 C 355.28125 374.367188 354.828125 373.8125 354.890625 373.195312 C 355.789062 364.175781 356.683594 355.195312 357.066406 344.839844 C 357.445312 334.472656 357.3125 322.722656 357.179688 310.933594 C 357.171875 310.308594 357.671875 309.800781 358.292969 309.792969 C 358.914062 309.785156 359.425781 310.285156 359.433594 310.90625 " fill-opacity="1" fill-rule="nonzero"/><path fill="#ff3131" d="M 368.035156 311.324219 C 368.253906 324.242188 368.472656 337.195312 368.199219 347.390625 C 367.929688 357.597656 367.164062 365.035156 366.40625 372.4375 C 366.339844 373.058594 365.789062 373.507812 365.167969 373.445312 C 364.550781 373.382812 364.097656 372.828125 364.160156 372.207031 C 364.921875 364.8125 365.675781 357.445312 365.945312 347.328125 C 366.21875 337.195312 366 324.296875 365.78125 311.359375 C 365.769531 310.738281 366.265625 310.226562 366.890625 310.214844 C 367.511719 310.203125 368.023438 310.703125 368.035156 311.324219 " fill-opacity="1" fill-rule="nonzero"/><path fill="#ff3131" d="M 376.621094 313.898438 C 376.757812 322.496094 376.894531 331.121094 376.601562 340.550781 C 376.308594 349.972656 375.585938 360.199219 374.867188 370.390625 C 374.824219 371.011719 374.285156 371.480469 373.664062 371.4375 C 373.042969 371.390625 372.574219 370.855469 372.617188 370.234375 C 373.339844 360.03125 374.058594 349.851562 374.347656 340.480469 C 374.636719 331.109375 374.503906 322.535156 374.367188 313.933594 C 374.355469 313.308594 374.855469 312.796875 375.472656 312.785156 C 376.097656 312.777344 376.609375 313.273438 376.621094 313.898438 " fill-opacity="1" fill-rule="nonzero"/><path fill="#ff3131" d="M 384.058594 321.566406 C 383.953125 332.351562 383.84375 343.171875 383.496094 350.855469 C 383.144531 358.5625 382.550781 363.117188 381.957031 367.648438 C 381.878906 368.265625 381.3125 368.703125 380.695312 368.625 C 380.078125 368.542969 379.640625 367.976562 379.722656 367.359375 C 380.308594 362.847656 380.894531 358.363281 381.242188 350.753906 C 381.589844 343.117188 381.695312 332.347656 381.800781 321.542969 C 381.808594 320.921875 382.320312 320.421875 382.941406 320.425781 C 383.5625 320.433594 384.0625 320.941406 384.058594 321.566406 " fill-opacity="1" fill-rule="nonzero"/><path fill="#ff3131" d="M 336.214844 319.160156 C 336.199219 326.03125 336.183594 332.921875 335.945312 340.277344 C 335.703125 347.628906 335.238281 355.4375 334.773438 363.226562 C 334.734375 363.847656 334.199219 364.320312 333.578125 364.285156 C 332.957031 364.246094 332.484375 363.714844 332.519531 363.09375 C 332.988281 355.292969 333.449219 347.515625 333.691406 340.203125 C 333.929688 332.886719 333.945312 326.03125 333.957031 319.15625 C 333.960938 318.53125 334.464844 318.027344 335.085938 318.03125 C 335.710938 318.03125 336.214844 318.539062 336.214844 319.160156 " fill-opacity="1" fill-rule="nonzero"/><path fill="#ff3131" d="M 331.652344 355.027344 L 331.566406 354.980469 C 337.851562 358.15625 344.070312 361.304688 350.636719 363.792969 C 357.199219 366.285156 364.125 368.128906 371.117188 369.992188 C 371.71875 370.148438 372.074219 370.765625 371.914062 371.371094 C 371.753906 371.96875 371.136719 372.328125 370.535156 372.167969 C 363.566406 370.3125 356.523438 368.441406 349.835938 365.902344 C 343.140625 363.359375 336.8125 360.160156 330.546875 356.992188 L 330.460938 356.941406 C 329.933594 356.613281 329.769531 355.917969 330.097656 355.390625 C 330.429688 354.863281 331.125 354.699219 331.652344 355.027344 " fill-opacity="1" fill-rule="nonzero"/><path fill="#ff3131" d="M 329.675781 343.367188 C 339.753906 347.714844 349.785156 352.042969 359.175781 355.324219 C 368.566406 358.601562 377.332031 360.839844 386.152344 363.089844 C 386.753906 363.246094 387.117188 363.855469 386.964844 364.460938 C 386.808594 365.0625 386.195312 365.429688 385.59375 365.273438 C 376.785156 363.027344 367.929688 360.765625 358.433594 357.453125 C 348.949219 354.140625 338.84375 349.78125 328.78125 345.4375 C 328.210938 345.191406 327.949219 344.527344 328.195312 343.957031 C 328.441406 343.386719 329.105469 343.121094 329.675781 343.367188 " fill-opacity="1" fill-rule="nonzero"/><path fill="#ff3131" d="M 329.839844 332.292969 C 342.933594 337.488281 355.988281 342.671875 366.078125 346.175781 C 376.148438 349.671875 383.261719 351.5 390.410156 353.332031 C 391.011719 353.484375 391.375 354.101562 391.21875 354.703125 C 391.066406 355.304688 390.449219 355.667969 389.847656 355.515625 C 382.691406 353.679688 375.503906 351.835938 365.339844 348.304688 C 355.195312 344.78125 342.082031 339.578125 329.007812 334.390625 C 328.429688 334.160156 328.144531 333.503906 328.378906 332.925781 C 328.605469 332.347656 329.261719 332.066406 329.839844 332.292969 " fill-opacity="1" fill-rule="nonzero"/><path fill="#ff3131" d="M 332.515625 323.039062 C 344.785156 328.140625 357.019531 333.230469 366.707031 336.703125 C 376.371094 340.164062 383.5 342.015625 390.667969 343.878906 C 391.269531 344.035156 391.632812 344.648438 391.476562 345.253906 C 391.320312 345.855469 390.703125 346.21875 390.101562 346.058594 C 382.925781 344.195312 375.710938 342.324219 365.945312 338.824219 C 356.195312 335.328125 343.902344 330.214844 331.652344 325.121094 C 331.078125 324.878906 330.804688 324.222656 331.042969 323.644531 C 331.28125 323.070312 331.941406 322.796875 332.515625 323.039062 " fill-opacity="1" fill-rule="nonzero"/><path fill="#ff3131" d="M 339.621094 315.800781 C 349.132812 319.773438 358.621094 323.738281 366.542969 326.695312 C 374.457031 329.648438 380.816406 331.597656 387.203125 333.558594 C 387.796875 333.742188 388.128906 334.371094 387.949219 334.96875 C 387.765625 335.5625 387.136719 335.898438 386.539062 335.714844 C 380.152344 333.757812 373.738281 331.789062 365.753906 328.808594 C 357.78125 325.832031 348.253906 321.847656 338.75 317.878906 C 338.175781 317.636719 337.90625 316.980469 338.144531 316.402344 C 338.386719 315.828125 339.042969 315.558594 339.621094 315.800781 " fill-opacity="1" fill-rule="nonzero"/><path fill="#ff3131" d="M 349.820312 311.398438 C 357.226562 314.15625 364.648438 316.921875 370.472656 319.117188 C 376.300781 321.316406 380.546875 322.953125 384.792969 324.585938 L 384.785156 324.582031 L 384.789062 324.582031 C 385.371094 324.804688 385.660156 325.453125 385.441406 326.035156 C 385.21875 326.617188 384.570312 326.910156 383.988281 326.6875 L 383.980469 326.6875 C 379.742188 325.054688 375.496094 323.421875 369.675781 321.226562 C 363.859375 319.03125 356.4375 316.269531 349.035156 313.511719 C 348.449219 313.292969 348.152344 312.644531 348.371094 312.058594 C 348.589844 311.476562 349.238281 311.179688 349.820312 311.398438 " fill-opacity="1" fill-rule="nonzero"/></svg>